<svg id="Слой_1" xmlns="http://www.w3.org/2000/svg" viewBox="0 0 103 103"><style>.st1{fill:#fff}</style><path fill="#d30210" d="M0 0h103v103H0z"/><path class="st1" d="M31.5 71.5V39.2L7.7 15.4v79.9h80L63.9 71.5z"/><path class="st1" d="M44.3 55.4v8.4h-5.1V39.3h8.3c1.7 0 3.1.2 4.4.6 1.2.4 2.2.9 3 1.6.8.7 1.4 1.5 1.8 2.5.4 1 .6 2 .6 3.2 0 1.2-.2 2.3-.6 3.3-.4 1-1 1.9-1.8 2.6-.8.7-1.8 1.3-3 1.7-1.2.4-2.7.6-4.3.6h-3.3zm0-3.9h3.2c1.6 0 2.8-.4 3.5-1.2.7-.8 1.1-1.8 1.1-3.1 0-.6-.1-1.2-.3-1.7-.2-.5-.5-.9-.8-1.3-.4-.4-.9-.6-1.4-.8-.6-.2-1.3-.3-2.1-.3h-3.2v8.4zm16.2 12.4V47.8H63c.4 0 .7.1.9.2.2.2.3.4.4.8l.2 1.6c.5-.9 1.1-1.6 1.8-2.2.7-.5 1.5-.8 2.3-.8.7 0 1.3.2 1.8.5l-.3 3.2c-.1.2-.1.4-.2.4-.1.1-.3.1-.4.1-.2 0-.4 0-.7-.1s-.6-.1-.9-.1c-.8 0-1.4.2-1.9.6-.5.4-.9 1-1.2 1.8v9.8h-4.3zm19.2-16.3c1.2 0 2.3.2 3.3.6 1 .4 1.8.9 2.5 1.6.7.7 1.3 1.6 1.6 2.6.4 1 .6 2.2.6 3.4s-.2 2.4-.6 3.4c-.4 1-.9 1.9-1.6 2.6-.7.7-1.6 1.3-2.5 1.7-1 .4-2.1.6-3.3.6-1.2 0-2.3-.2-3.3-.6-1-.4-1.8-.9-2.6-1.7-.7-.7-1.3-1.6-1.6-2.6-.4-1-.6-2.2-.6-3.4s.2-2.4.6-3.4c.4-1 .9-1.9 1.6-2.6.7-.7 1.6-1.3 2.6-1.6 1-.4 2.1-.6 3.3-.6zm0 13.3c1.2 0 2.1-.4 2.7-1.3.6-.8.9-2.1.9-3.8 0-1.7-.3-2.9-.9-3.8-.6-.8-1.5-1.3-2.7-1.3-1.3 0-2.2.4-2.8 1.3-.6.8-.9 2.1-.9 3.8 0 1.7.3 2.9.9 3.8.6.9 1.5 1.3 2.8 1.3z"/></svg>