<svg id="Слой_1" xmlns="http://www.w3.org/2000/svg" fill="#635856" viewBox="0 0 111.9 33.9"><path class="st0" d="M3.8 6.6H2v4.8H0V.2h2v4.7h1.9C4.2 2.1 6.3 0 9.2 0c3.2 0 5.4 2.5 5.4 5.8 0 3.2-2.2 5.8-5.4 5.8-3 0-5-2.1-5.4-5zm8.7-.8c0-2.2-1.4-4-3.4-4s-3.3 1.7-3.3 4c0 2.2 1.4 4 3.4 4s3.3-1.7 3.3-4zm4.2-2.9h1.9v1.4c.6-.9 1.5-1.6 2.9-1.6 2 0 3.9 1.6 3.9 4.4 0 2.8-1.9 4.4-3.9 4.4-1.4 0-2.3-.7-2.9-1.5v4h-1.9V2.9zm6.8 4.3c0-1.6-1.1-2.7-2.4-2.7s-2.5 1.1-2.5 2.7 1.2 2.7 2.5 2.7 2.4-1 2.4-2.7zm3.9-4.3h1.9v5.7c1.3-1.9 2.7-3.8 4-5.7h1.8v8.5h-1.9V5.8l-4 5.6h-1.8V2.9zm9.2 6.8h.9c.7-1.4.9-3.4.9-5.7V3H45v6.8h1.2l-.3 3.7h-1.6v-2h-5.9l-.2 2h-1.6V9.7zm6.5 0V4.6h-2.8v1.1c0 1.5-.3 3-.8 4h3.6zm4.7-6.8h1.9v5.7c1.3-1.9 2.7-3.8 4-5.7h1.8v8.5h-1.9V5.8l-4 5.6h-1.8V2.9zm15.3 5.3c-.6.3-1.6.6-2.5.6-1.7 0-2.9-.9-2.9-2.7V2.9h1.9v2.8c0 .8.5 1.5 1.4 1.5.8 0 1.5-.2 2.1-.6V2.9H65v8.5h-1.9V8.2zm3.9-1c0-2.4 1.7-4.4 4.1-4.4 2.7 0 4 2.1 4 4.5v.5h-6.2c.2 1.4 1.2 2.1 2.4 2.1.9 0 1.6-.4 2.3-1l1.1 1c-.8 1-1.9 1.6-3.5 1.6-2.3.1-4.2-1.7-4.2-4.3zm6.3-.6c-.1-1.2-.9-2.2-2.1-2.2-1.2 0-2 .9-2.2 2.2h4.3zm3.4.6c0-2.4 1.9-4.4 4.4-4.4 1.6 0 2.6.6 3.4 1.5l-1.2 1.3c-.7-.7-1.3-1.1-2.3-1.1-1.4 0-2.4 1.2-2.4 2.7 0 1.5 1 2.7 2.5 2.7.9 0 1.6-.4 2.2-1.1l1.2 1.2c-.8.9-1.8 1.6-3.5 1.6-2.5 0-4.3-2-4.3-4.4zm9.5-4.3h1.9v4l3.7-4h2.3l-3.3 3.6 3.6 4.9H92l-2.6-3.5L88 9.4v2h-1.9V2.9zm14.3 8.5v-1c-.6.7-1.5 1.2-2.7 1.2-1.6 0-3-.9-3-2.6 0-1.9 1.5-2.8 3.4-2.8 1 0 1.7.1 2.3.4v-.2c0-1.2-.7-1.8-2.1-1.8-.9 0-1.6.2-2.4.5l-.5-1.6c.9-.4 1.8-.7 3.2-.7 2.5 0 3.7 1.3 3.7 3.6v5h-1.9zm.1-3.5c-.5-.2-1.2-.3-1.9-.3-1.2 0-1.9.5-1.9 1.3s.7 1.2 1.6 1.2c1.3 0 2.2-.7 2.2-1.8v-.4zm5.7.3c-1.2-.4-2-1.2-2-2.5 0-1.6 1.2-2.8 3.3-2.8h4.2v8.5H110V8.5h-1.7l-2 2.8H104l2.3-3.1zm3.7-1.1V4.5h-2c-1 0-1.6.5-1.6 1.3s.7 1.3 1.7 1.3h1.9zM0 22.5h2v5.6l5.3-5.6h2.4L5 27.3l4.9 6.4H7.5l-3.8-5L2 30.4v3.3H0V22.5zm10.6 7c0-2.4 1.9-4.4 4.5-4.4s4.5 2 4.5 4.4c0 2.4-1.9 4.4-4.5 4.4s-4.5-2-4.5-4.4zm7.1 0c0-1.5-1.1-2.7-2.6-2.7-1.6 0-2.5 1.2-2.5 2.7 0 1.5 1.1 2.7 2.6 2.7s2.5-1.2 2.5-2.7zm3.9-4.3h1.9l2.6 3.9 2.7-3.9h1.9v8.5h-2V28L26 31.8 23.4 28v5.6h-1.9v-8.4zm11.5 0h7.5v8.5h-1.9v-6.8H35v6.8h-1.9v-8.5zm15.2 8.5v-1c-.6.7-1.5 1.2-2.7 1.2-1.6 0-3-.9-3-2.6 0-1.9 1.5-2.8 3.4-2.8 1 0 1.7.1 2.3.4v-.2c0-1.2-.7-1.8-2.1-1.8-.9 0-1.6.2-2.4.5l-.5-1.6c.9-.4 1.8-.7 3.2-.7 2.5 0 3.7 1.3 3.7 3.6v5h-1.9zm0-3.6c-.5-.2-1.2-.3-1.9-.3-1.2 0-1.9.5-1.9 1.3s.7 1.2 1.6 1.2c1.3 0 2.2-.7 2.2-1.8v-.4zm4.2-4.9h1.9v3.4h3.7v-3.4H60v8.5h-1.9v-3.4h-3.7v3.4h-1.9v-8.5zm10 0h1.9v5.7c1.3-1.9 2.7-3.8 4-5.7h1.8v8.5h-1.9V28l-4 5.6h-1.8v-8.4zm11.7 5.3c-1.2-.4-2-1.2-2-2.5 0-1.6 1.2-2.8 3.3-2.8h4.2v8.5h-1.9v-2.8h-1.7l-2 2.8h-2.3l2.4-3.2zm3.7-1.1v-2.6h-2c-1 0-1.6.5-1.6 1.3s.7 1.3 1.7 1.3h1.9z"/></svg>