<?xml version="1.0" encoding="utf-8"?>
<!-- Generator: Adobe Illustrator 22.0.1, SVG Export Plug-In . SVG Version: 6.00 Build 0)  -->
<svg version="1.1" id="Слой_1" xmlns="http://www.w3.org/2000/svg" xmlns:xlink="http://www.w3.org/1999/xlink" x="0px" y="0px"
	 viewBox="0 0 103 103" style="enable-background:new 0 0 103 103;" xml:space="preserve">
<style type="text/css">
	.st0{fill:#d30210;}
	.st1{fill:#FFFFFF;}
</style>
<g>
	<rect class="st0" width="103" height="103"/>
	<polygon class="st1" points="31.5,71.5 31.5,39.2 7.7,15.4 7.7,95.3 87.7,95.3 63.9,71.5 	"/>
	<g>
		<path class="st1" d="M44.3,55.4v8.4h-5.1V39.3h8.3c1.7,0,3.1,0.2,4.4,0.6c1.2,0.4,2.2,0.9,3,1.6c0.8,0.7,1.4,1.5,1.8,2.5
			c0.4,1,0.6,2,0.6,3.2c0,1.2-0.2,2.3-0.6,3.3c-0.4,1-1,1.9-1.8,2.6c-0.8,0.7-1.8,1.3-3,1.7c-1.2,0.4-2.7,0.6-4.3,0.6H44.3z
			 M44.3,51.5h3.2c1.6,0,2.8-0.4,3.5-1.2c0.7-0.8,1.1-1.8,1.1-3.1c0-0.6-0.1-1.2-0.3-1.7c-0.2-0.5-0.5-0.9-0.8-1.3
			c-0.4-0.4-0.9-0.6-1.4-0.8c-0.6-0.2-1.3-0.3-2.1-0.3h-3.2V51.5z"/>
		<path class="st1" d="M60.5,63.9V47.8H63c0.4,0,0.7,0.1,0.9,0.2c0.2,0.2,0.3,0.4,0.4,0.8l0.2,1.6c0.5-0.9,1.1-1.6,1.8-2.2
			c0.7-0.5,1.5-0.8,2.3-0.8c0.7,0,1.3,0.2,1.8,0.5l-0.3,3.2c-0.1,0.2-0.1,0.4-0.2,0.4c-0.1,0.1-0.3,0.1-0.4,0.1
			c-0.2,0-0.4,0-0.7-0.1s-0.6-0.1-0.9-0.1c-0.8,0-1.4,0.2-1.9,0.6c-0.5,0.4-0.9,1-1.2,1.8v9.8H60.5z"/>
		<path class="st1" d="M79.7,47.6c1.2,0,2.3,0.2,3.3,0.6c1,0.4,1.8,0.9,2.5,1.6c0.7,0.7,1.3,1.6,1.6,2.6c0.4,1,0.6,2.2,0.6,3.4
			s-0.2,2.4-0.6,3.4c-0.4,1-0.9,1.9-1.6,2.6c-0.7,0.7-1.6,1.3-2.5,1.7c-1,0.4-2.1,0.6-3.3,0.6c-1.2,0-2.3-0.2-3.3-0.6
			c-1-0.4-1.8-0.9-2.6-1.7c-0.7-0.7-1.3-1.6-1.6-2.6c-0.4-1-0.6-2.2-0.6-3.4s0.2-2.4,0.6-3.4c0.4-1,0.9-1.9,1.6-2.6
			c0.7-0.7,1.6-1.3,2.6-1.6C77.4,47.8,78.5,47.6,79.7,47.6z M79.7,60.9c1.2,0,2.1-0.4,2.7-1.3c0.6-0.8,0.9-2.1,0.9-3.8
			c0-1.7-0.3-2.9-0.9-3.8c-0.6-0.8-1.5-1.3-2.7-1.3c-1.3,0-2.2,0.4-2.8,1.3c-0.6,0.8-0.9,2.1-0.9,3.8c0,1.7,0.3,2.9,0.9,3.8
			C77.5,60.5,78.4,60.9,79.7,60.9z"/>
	</g>
</g>
</svg>
