<?xml version="1.0" encoding="utf-8"?>
<!-- Generator: Adobe Illustrator 22.0.1, SVG Export Plug-In . SVG Version: 6.00 Build 0)  -->
<svg version="1.1" id="Слой_1" xmlns="http://www.w3.org/2000/svg" xmlns:xlink="http://www.w3.org/1999/xlink" x="0px" y="0px"
	 fill="#635856" viewBox="0 0 111.9 33.9" style="enable-background:new 0 0 111.9 33.9;" xml:space="preserve">
<g>
	<path class="st0" d="M3.8,6.6H2v4.8H0V0.2h2v4.7h1.9C4.2,2.1,6.3,0,9.2,0c3.2,0,5.4,2.5,5.4,5.8c0,3.2-2.2,5.8-5.4,5.8
		C6.2,11.6,4.2,9.5,3.8,6.6z M12.5,5.8c0-2.2-1.4-4-3.4-4c-2,0-3.3,1.7-3.3,4c0,2.2,1.4,4,3.4,4S12.5,8.1,12.5,5.8z"/>
	<path class="st0" d="M16.7,2.9h1.9v1.4c0.6-0.9,1.5-1.6,2.9-1.6c2,0,3.9,1.6,3.9,4.4c0,2.8-1.9,4.4-3.9,4.4c-1.4,0-2.3-0.7-2.9-1.5
		V14h-1.9V2.9z M23.5,7.2c0-1.6-1.1-2.7-2.4-2.7s-2.5,1.1-2.5,2.7c0,1.6,1.2,2.7,2.5,2.7C22.4,9.9,23.5,8.9,23.5,7.2z"/>
	<path class="st0" d="M27.4,2.9h1.9v5.7c1.3-1.9,2.7-3.8,4-5.7h1.8v8.5h-1.9V5.8l-4,5.6h-1.8V2.9z"/>
	<path class="st0" d="M36.6,9.7h0.9c0.7-1.4,0.9-3.4,0.9-5.7v-1H45v6.8h1.2l-0.3,3.7h-1.6v-2h-5.9l-0.2,2h-1.6V9.7z M43.1,9.7V4.6
		h-2.8v1.1c0,1.5-0.3,3-0.8,4H43.1z"/>
	<path class="st0" d="M47.8,2.9h1.9v5.7c1.3-1.9,2.7-3.8,4-5.7h1.8v8.5h-1.9V5.8l-4,5.6h-1.8V2.9z"/>
	<path class="st0" d="M63.1,8.2c-0.6,0.3-1.6,0.6-2.5,0.6c-1.7,0-2.9-0.9-2.9-2.7V2.9h1.9v2.8c0,0.8,0.5,1.5,1.4,1.5
		c0.8,0,1.5-0.2,2.1-0.6V2.9H65v8.5h-1.9V8.2z"/>
	<path class="st0" d="M67,7.2c0-2.4,1.7-4.4,4.1-4.4c2.7,0,4,2.1,4,4.5c0,0.1,0,0.4,0,0.5h-6.2c0.2,1.4,1.2,2.1,2.4,2.1
		c0.9,0,1.6-0.4,2.3-1l1.1,1c-0.8,1-1.9,1.6-3.5,1.6C68.9,11.6,67,9.8,67,7.2z M73.3,6.6c-0.1-1.2-0.9-2.2-2.1-2.2
		c-1.2,0-2,0.9-2.2,2.2H73.3z"/>
	<path class="st0" d="M76.7,7.2L76.7,7.2c0-2.4,1.9-4.4,4.4-4.4c1.6,0,2.6,0.6,3.4,1.5l-1.2,1.3C82.6,4.9,82,4.5,81,4.5
		c-1.4,0-2.4,1.2-2.4,2.7v0c0,1.5,1,2.7,2.5,2.7c0.9,0,1.6-0.4,2.2-1.1l1.2,1.2c-0.8,0.9-1.8,1.6-3.5,1.6
		C78.5,11.6,76.7,9.6,76.7,7.2z"/>
	<path class="st0" d="M86.2,2.9h1.9v4l3.7-4h2.3l-3.3,3.6l3.6,4.9H92l-2.6-3.5l-1.4,1.5v2h-1.9V2.9z"/>
	<path class="st0" d="M100.5,11.4v-1c-0.6,0.7-1.5,1.2-2.7,1.2c-1.6,0-3-0.9-3-2.6c0-1.9,1.5-2.8,3.4-2.8c1,0,1.7,0.1,2.3,0.4V6.4
		c0-1.2-0.7-1.8-2.1-1.8c-0.9,0-1.6,0.2-2.4,0.5l-0.5-1.6c0.9-0.4,1.8-0.7,3.2-0.7c2.5,0,3.7,1.3,3.7,3.6v5H100.5z M100.6,7.9
		c-0.5-0.2-1.2-0.3-1.9-0.3c-1.2,0-1.9,0.5-1.9,1.3c0,0.8,0.7,1.2,1.6,1.2c1.3,0,2.2-0.7,2.2-1.8V7.9z"/>
	<path class="st0" d="M106.3,8.2c-1.2-0.4-2-1.2-2-2.5c0-1.6,1.2-2.8,3.3-2.8h4.2v8.5H110V8.5h-1.7l-2,2.8H104L106.3,8.2z M110,7.1
		V4.5h-2c-1,0-1.6,0.5-1.6,1.3c0,0.8,0.7,1.3,1.7,1.3H110z"/>
	<path class="st0" d="M0,22.5h2v5.6l5.3-5.6h2.4l-4.7,4.8l4.9,6.4H7.5l-3.8-5L2,30.4v3.3H0V22.5z"/>
	<path class="st0" d="M10.6,29.5c0-2.4,1.9-4.4,4.5-4.4s4.5,2,4.5,4.4c0,2.4-1.9,4.4-4.5,4.4C12.5,33.9,10.6,31.9,10.6,29.5z
		 M17.7,29.5c0-1.5-1.1-2.7-2.6-2.7c-1.6,0-2.5,1.2-2.5,2.7c0,1.5,1.1,2.7,2.6,2.7C16.7,32.2,17.7,31,17.7,29.5z"/>
	<path class="st0" d="M21.6,25.2h1.9l2.6,3.9l2.7-3.9h1.9v8.5h-2V28l-2.7,3.8l-2.6-3.8v5.6h-1.9V25.2z"/>
	<path class="st0" d="M33.1,25.2h7.5v8.5h-1.9v-6.8h-3.7v6.8h-1.9V25.2z"/>
	<path class="st0" d="M48.3,33.7v-1c-0.6,0.7-1.5,1.2-2.7,1.2c-1.6,0-3-0.9-3-2.6c0-1.9,1.5-2.8,3.4-2.8c1,0,1.7,0.1,2.3,0.4v-0.2
		c0-1.2-0.7-1.8-2.1-1.8c-0.9,0-1.6,0.2-2.4,0.5l-0.5-1.6c0.9-0.4,1.8-0.7,3.2-0.7c2.5,0,3.7,1.3,3.7,3.6v5H48.3z M48.3,30.1
		c-0.5-0.2-1.2-0.3-1.9-0.3c-1.2,0-1.9,0.5-1.9,1.3c0,0.8,0.7,1.2,1.6,1.2c1.3,0,2.2-0.7,2.2-1.8V30.1z"/>
	<path class="st0" d="M52.5,25.2h1.9v3.4h3.7v-3.4h1.9v8.5h-1.9v-3.4h-3.7v3.4h-1.9V25.2z"/>
	<path class="st0" d="M62.5,25.2h1.9v5.7c1.3-1.9,2.7-3.8,4-5.7h1.8v8.5h-1.9V28l-4,5.6h-1.8V25.2z"/>
	<path class="st0" d="M74.2,30.5c-1.2-0.4-2-1.2-2-2.5c0-1.6,1.2-2.8,3.3-2.8h4.2v8.5h-1.9v-2.8h-1.7l-2,2.8h-2.3L74.2,30.5z
		 M77.9,29.4v-2.6h-2c-1,0-1.6,0.5-1.6,1.3c0,0.8,0.7,1.3,1.7,1.3H77.9z"/>
</g>
</svg>
